<!DOCTYPE svg PUBLIC "-//W3C//DTD SVG 1.1//EN" "http://www.w3.org/Graphics/SVG/1.1/DTD/svg11.dtd">
<!-- Uploaded to: SVG Repo, www.svgrepo.com, Transformed by: SVG Repo Mixer Tools -->
<svg fill="#eeeeee" height="800px" width="800px" version="1.1" id="Layer_1" xmlns="http://www.w3.org/2000/svg" xmlns:xlink="http://www.w3.org/1999/xlink" viewBox="0 0 512.001 512.001" xml:space="preserve" stroke="#eeeeee">
<g id="SVGRepo_bgCarrier" stroke-width="0"/>
<g id="SVGRepo_tracerCarrier" stroke-linecap="round" stroke-linejoin="round"/>
<g id="SVGRepo_iconCarrier"> <g> <g> <path d="M159.103,390.638H17.257c-7.422,0-13.44,6.018-13.44,13.44v57.645c0,7.422,6.016,13.44,13.44,13.44h141.845 c7.422,0,13.44-6.018,13.44-13.44v-57.645C172.542,396.656,166.525,390.638,159.103,390.638z"/> </g> </g> <g> <g> <path d="M374.629,400.796c-1.467-5.833-6.73-10.157-13.019-10.157H219.765c-7.422,0-13.44,6.018-13.44,13.44v57.645 c0,7.422,6.016,13.44,13.44,13.44H361.61c6.288,0,11.552-4.325,13.019-10.157C374.434,462.213,374.418,403.807,374.629,400.796z"/> </g> </g> <g> <g> <path d="M262.075,272.832c-1.37,0-146.962,0-146.962,0c-6.198,1.195-10.881,6.642-10.881,13.189v57.645 c0,7.422,6.018,13.44,13.44,13.44h141.845c7.422,0,13.44-6.018,13.44-13.44v-57.645 C272.956,279.474,268.273,274.027,262.075,272.832z"/> </g> </g> <g> <g> <path d="M59.373,272.832C10.657,272.832,0,272.583,0,272.583v84.523h56.815c7.422,0,13.44-6.018,13.44-13.44v-57.645 C70.255,279.473,65.57,274.026,59.373,272.832z"/> </g> </g> <g> <g> <path d="M463.332,272.581c-9.683,0-134.733,0.251-144.404,0.251c-6.198,1.195-10.881,6.642-10.881,13.189v57.645 c0,7.422,6.016,13.44,13.44,13.44h141.845c7.422,0,13.44-6.018,13.44-13.44v-57.645 C476.771,278.599,470.754,272.581,463.332,272.581z"/> </g> </g> <g> <g> <path d="M421.352,390.639v-0.001c-7.422,0-13.44,6.018-13.44,13.44v57.645c0,7.422,6.018,13.44,13.44,13.44h90.649v-84.523 H421.352z"/> </g> </g> <g> <g> <path d="M155.389,154.896H13.545c-7.422,0-13.44,6.016-13.44,13.44v57.645c0,7.422,6.018,13.44,13.44,13.44h141.845 c7.422,0,13.438-6.016,13.438-13.44v-57.645C168.829,160.913,162.813,154.896,155.389,154.896z"/> </g> </g> <g> <g> <path d="M357.898,154.896H216.052c-7.422,0.001-13.438,6.018-13.438,13.44v57.645c0,7.422,6.016,13.44,13.44,13.44h141.845 c7.422,0,13.44-6.016,13.44-13.44v-57.645C371.338,160.913,365.32,154.896,357.898,154.896z"/> </g> </g> <g> <g> <path d="M255.805,36.839H113.959c-7.422,0-13.44,6.016-13.44,13.44v57.645c0,7.423,6.016,13.44,13.44,13.44h141.845 c7.422,0,13.44-6.016,13.44-13.44V50.278C269.244,42.856,263.228,36.839,255.805,36.839z"/> </g> </g> <g> <g> <path d="M53.102,36.839H0v84.523h53.103c7.422,0.001,13.438-6.015,13.438-13.438V50.278 C66.542,42.856,60.525,36.839,53.102,36.839z"/> </g> </g> </g>
</svg>