<!DOCTYPE svg PUBLIC "-//W3C//DTD SVG 1.1//EN" "http://www.w3.org/Graphics/SVG/1.1/DTD/svg11.dtd">
<!-- Uploaded to: SVG Repo, www.svgrepo.com, Transformed by: SVG Repo Mixer Tools -->
<svg width="800px" height="800px" viewBox="0 0 100 100" xmlns="http://www.w3.org/2000/svg" xmlns:xlink="http://www.w3.org/1999/xlink" aria-hidden="true" role="img" class="iconify iconify--gis" preserveAspectRatio="xMidYMid meet" fill="#" stroke="#">
<g id="SVGRepo_bgCarrier" stroke-width="0"/>
<g id="SVGRepo_tracerCarrier" stroke-linecap="round" stroke-linejoin="round"/>
<g id="SVGRepo_iconCarrier">
<path d="M50.049 9.51a4.725 2.593 0 0 0-3.39.76L1.382 35.115a4.725 2.593 0 0 0 0 3.668L46.658 63.63a4.725 2.593 0 0 0 6.684 0l45.275-24.846a4.725 2.593 0 0 0 0-3.668L53.342 10.27a4.725 2.593 0 0 0-3.293-.76zM50 15.77l38.596 21.18L50 58.128l-38.594-21.18zM4.727 46.332l-3.344 1.834a4.725 2.593 0 0 0 0 3.668L46.658 76.68a4.725 2.593 0 0 0 6.684 0l45.275-24.846a4.725 2.593 0 0 0-.002-3.668l-3.342-1.834l-6.683 3.666l.004.002L50 71.18L11.404 50l.004-.002zm0 13.05l-3.344 1.835a4.725 2.593 0 0 0 0 3.668L46.658 89.73a4.725 2.593 0 0 0 6.684 0l45.275-24.846a4.725 2.593 0 0 0-.002-3.668l-3.342-1.834l-6.683 3.666l.004.002L50 84.23L11.404 63.05l.004-.002z" fill="#EEEEEE"/>
</g>
</svg>